# xmcd CD database file
#
# Track frame offsets:
#	150
#	16802
#	27246
#	42437
#	59406
#	71804
#	86416
#	103573
#	127246
#	136711
#	148477
#	168454
#	178584
#
# Disc length: 2685 seconds
#
# Revision: 0
# Processed by: cddbd v1.5.1PL0 Copyright (c) Steve Scherf et al.
# Submitted via: CDex 1.51
#
DISCID=bb0a7b0d
DTITLE=Mapleoak - Mapleoak
DYEAR=1971
DGENRE=Country
TTITLE0=Son of a Gun
TTITLE1=Hurt Me So Much
TTITLE2=Guitar Pickers
TTITLE3=Natural Joy
TTITLE4=Roses
TTITLE5=Bring Me Water
TTITLE6=Down, Down
TTITLE7=Treetops
TTITLE8=Flying Circus
TTITLE9=Sail Away
TTITLE10=I Don't Know
TTITLE11=All These Times
TTITLE12=Frankley Stoned
EXTD=YEAR: 1971
EXTT0=
EXTT1=
EXTT2=
EXTT3=
EXTT4=
EXTT5=
EXTT6=
EXTT7=
EXTT8=
EXTT9=
EXTT10=
EXTT11=
EXTT12=
PLAYORDER=
